# xmcd
#
# Track frame offsets: 
#        150
#        16955
#        28500
#        43930
#        63365
#        77975
#        90825
#        104033
#        121395
#        135878
#        150373
#        164490
#        187743
#        201758
#        222758
#        239543
#        254308
#        271918
#        287048
#        300120
#        316175
#
# Disc length: 4395 seconds
#
# Revision: 6
# Processed by: cddbd v1.5.2PL0 Copyright (c) Steve Scherf et al.
# Submitted via: ExactAudioCopyFreeDBPlugin 1.0
#
DISCID=10112915
DTITLE=Various Artist - The Complete Stax-Volt Singles, 1959-1975
DYEAR=1994
DGENRE=Soul
TTITLE0=The Staple Singers - City in the Sky
TTITLE1=Isaac Hayes - Title Theme from "Three Tough Guys"
TTITLE2=Eddie Floyd - Soul Street
TTITLE3=Albert King - Flat Tire
TTITLE4=The Soul Children - Love Makes it Right
TTITLE5=The Temprees - Mr. Cool That Ain't Cool
TTITLE6=Rufus Thomas - Boogie Ain't Nuttin' (But Gettin' Down) (Part 1
TTITLE6=)
TTITLE7=Ron Banks and The Dramatics - Highway to Heaven
TTITLE8=William Bell - Get it While It's Hot
TTITLE9=Frederick Knight - Passing Thru
TTITLE10=The Newcomers - Keep an Eye on Your Close Friends
TTITLE11=The Staple Singers - My Main Man - There is a God
TTITLE12=Mel and Tim - That's the Way I Want to Live My Life
TTITLE13=Mel and Tim - Forever and a Day
TTITLE14=The Emotions - Baby, I'm Through
TTITLE15=Johnnie Taylor - It's September
TTITLE16=Shirley Brown - Woman to Woman
TTITLE17=Randy Brown and Company - Did You Hear Yourself (Part 1)
TTITLE18=Annette Thomas - You Need a Friend Like Mine
TTITLE19=The Temprees - I Love, I Love
TTITLE20=Little Milton - Let Me Back In
EXTD=
EXTT0=
EXTT1=
EXTT2=
EXTT3=
EXTT4=
EXTT5=
EXTT6=
EXTT7=
EXTT8=
EXTT9=
EXTT10=
EXTT11=
EXTT12=
EXTT13=
EXTT14=
EXTT15=
EXTT16=
EXTT17=
EXTT18=
EXTT19=
EXTT20=
PLAYORDER=
